HIERARCHY
ROOT Hips
{
  OFFSET 0 0 0
  CHANNELS 6 Xposition Yposition Zposition Zrotation Yrotation Xrotation
  JOINT LeftThigh
  {
    OFFSET 8.409438 0 -5.917753
    CHANNELS 3 Zrotation Yrotation Xrotation
    JOINT LeftLeg
    {
      OFFSET 0 0 -42.358652
      CHANNELS 3 Zrotation Yrotation Xrotation
      JOINT LeftFoot
      {
        OFFSET 0 0 -39.357303
        CHANNELS 3 Zrotation Yrotation Xrotation
      }
    }
  }
  JOINT RightThigh
  {
    OFFSET -8.409438 0 -5.917753
    CHANNELS 3 Zrotation Yrotation Xrotation
    JOINT RightLeg
    {
      OFFSET 0 0 -42.358652
      CHANNELS 3 Zrotation Yrotation Xrotation
      JOINT RightFoot
      {
        OFFSET 0 0 -39.357303
        CHANNELS 3 Zrotation Yrotation Xrotation
      }
    }
  }
  JOINT SpineLow
  {
    OFFSET 0 0 4.719101
    CHANNELS 3 Zrotation Yrotation Xrotation
    JOINT SpineMid
    {
      OFFSET 0 0 12.899191
      CHANNELS 3 Zrotation Yrotation Xrotation
      JOINT Chest
      {
        OFFSET 0 0 12.899191
        CHANNELS 3 Zrotation Yrotation Xrotation
        JOINT LeftShoulder
        {
          OFFSET 7.550562 1.41573 9.438202
          CHANNELS 3 Zrotation Yrotation Xrotation
          JOINT LeftArm
          {
            OFFSET 9.155056 0 4.247191
            CHANNELS 3 Zrotation Yrotation Xrotation
            JOINT LeftForearm
            {
              OFFSET 0 0 25.771955
              CHANNELS 3 Zrotation Yrotation Xrotation
              JOINT LeftHand
              {
                OFFSET 0 0 25.197169
                CHANNELS 3 Zrotation Yrotation Xrotation
              }
            }
          }
        }
        JOINT RightShoulder
        {
          OFFSET -7.550562 1.41573 9.438202
          CHANNELS 3 Zrotation Yrotation Xrotation
          JOINT RightArm
          {
            OFFSET -9.155056 0 4.247191
            CHANNELS 3 Zrotation Yrotation Xrotation
            JOINT RightForearm
            {
              OFFSET 0 0 -25.771955
              CHANNELS 3 Zrotation Yrotation Xrotation
              JOINT RightHand
              {
                OFFSET 0 0 -25.197169
                CHANNELS 3 Zrotation Yrotation Xrotation
              }
            }
          }
        }
        JOINT Neck
        {
          OFFSET 0 0 15.101124
          CHANNELS 3 Zrotation Yrotation Xrotation
          JOINT Head
          {
            OFFSET 0 0 11.325843
            CHANNELS 3 Zrotation Yrotation Xrotation
            End Site
            {
              OFFSET 0 0 14.157303
            }
          }
        }
      }
    }
  }
}
MOTION
Frames: 13
Frame Time: 0.0
0.0  101.685394  0.0  -2.525272  8.72579  -128.416241  8.773154  -14.692754  4.031673  -13.555345  16.70134  49.282806  -1.874304  4.514721  -1.6821  4.573258  -17.881266  -78.942574  15.994703  11.927608  54.877849  -11.650702  -9.087311  13.070457  -1.692356  -0.023673  4.471252  -4.612113  0.2476  12.216536  -4.612113  0.2476  12.216536  7.453535  23.567138  27.037189  107.521987  46.699022  174.531142  -35.108786  0.046153  105.157068  85.736501  6.085492  -22.496886  18.24258  -8.234816  20.100365  -22.077913  73.14336  -62.758013  -15.223441  -18.069834  -75.143308  60.053345  9.578663  12.075645  -10.239395  2.129685  5.448813  -7.698375  1.50661  4.123209  
0.0  101.685394  0.0  -3.547758  9.539033  -128.602585  7.55647  -15.12946  4.180303  -12.617147  15.733481  49.559383  -3.412287  4.499353  -1.951876  5.119339  -16.133225  -79.755673  14.432443  13.858562  61.211465  -9.756934  -8.848297  12.760767  -1.858318  -0.086454  4.582368  -5.074933  0.115882  12.523587  -5.074933  0.115882  12.523588  7.452087  23.424852  26.360694  107.537403  46.658094  174.710035  -35.271712  -0.176309  104.857998  85.73583  6.247063  -21.988698  18.117636  -8.010702  19.463272  -20.894003  72.911421  -61.469794  -15.208382  -17.407155  -75.681458  60.135726  9.456862  11.966113  -10.454981  1.648789  5.12416  -7.855172  1.149416  3.872413  
0.0  101.685394  0.0  -4.35036  10.202097  -129.176068  6.597943  -15.756644  4.789823  -12.471005  15.824282  49.440275  -3.588404  4.509352  -2.069367  5.48854  -13.553482  -79.905317  12.039612  16.167749  66.902968  -7.473689  -8.64763  12.796926  -1.890171  -0.143285  4.819896  -5.171512  -0.014116  13.176641  -5.171512  -0.014116  13.17664  6.689223  23.055975  25.060671  107.735153  46.363526  175.280267  -35.324911  -0.895391  104.396463  85.889296  6.612531  -21.388958  17.386822  -7.745406  18.366685  -19.319696  72.810416  -59.775572  -15.296491  -16.866751  -76.21181  60.143475  9.374746  11.80913  -11.028261  1.067505  4.738382  -8.279821  0.715436  3.574332  
0.0  101.685394  0.0  -4.984398  10.405564  -129.449405  6.359947  -16.693076  5.124105  -13.179878  16.793502  48.768286  -3.139061  4.484072  -2.102898  5.063761  -10.99235  -79.921573  9.637719  17.230833  72.297104  -5.694732  -8.050869  12.724978  -1.94609  -0.24383  4.914002  -5.343665  -0.268744  13.441622  -5.343665  -0.268744  13.441623  6.781843  22.924783  24.398926  108.185114  45.730781  176.126138  -35.097007  -1.872473  103.892609  86.226293  6.926081  -20.978826  17.026717  -7.280317  17.974964  -17.480828  72.813653  -57.836806  -15.33207  -16.560681  -76.804676  60.119659  9.315858  11.696194  -11.266033  0.876485  4.71053  -8.45671  0.570781  3.55042  
0.0  101.685394  0.0  -5.472415  10.436577  -128.908737  6.714932  -17.642591  4.676779  -14.518851  18.283627  47.614128  -2.035313  4.53108  -1.945411  4.318543  -9.750798  -79.87079  8.42493  17.593004  77.136388  -4.802876  -6.908652  12.383003  -1.999028  -0.347123  4.746321  -5.508051  -0.552816  12.992382  -5.508051  -0.552816  12.992382  7.382867  22.786025  24.663507  108.95685  44.88018  177.103904  -34.778374  -3.493528  103.573586  85.875188  7.195379  -20.883534  16.69256  -6.988668  18.461407  -15.516833  72.833042  -55.793725  -15.307898  -16.337152  -77.386633  60.057072  9.227239  11.619745  -11.364014  0.926565  5.16337  -8.531373  0.599189  3.891272  
0.0  101.685394  0.0  -5.597189  10.087663  -128.061909  7.49125  -18.3622  3.992019  -15.742996  19.652127  46.41038  -0.814457  4.518694  -1.741965  4.111787  -8.13363  -79.559922  7.171009  17.468335  81.447863  -4.680815  -5.814558  12.292496  -1.943839  -0.412449  4.551514  -5.369343  -0.757204  12.465537  -5.369343  -0.757204  12.465537  7.779236  22.547429  24.877103  109.852042  44.068842  178.187234  -34.468456  -5.279677  103.482228  85.066314  7.647055  -21.104073  16.169404  -6.858825  18.785553  -13.1834  72.816093  -53.432933  -15.135079  -16.17575  -77.987049  59.975488  9.111732  11.570977  -11.522489  0.881572  5.538614  -8.650527  0.55702  4.172263  
0.0  101.685394  0.0  -5.282081  9.316849  -127.371382  8.506408  -18.751809  3.508435  -16.37712  20.524233  45.548311  -0.137243  4.469006  -1.668932  4.390554  -5.410073  -78.82353  4.795193  16.409859  85.447477  -4.937838  -4.469022  12.297256  -1.910842  -0.249982  4.33574  -5.248581  -0.338649  11.862655  -5.248581  -0.338649  11.862655  9.257448  21.378663  25.545182  110.763012  43.506777  179.334129  -34.260232  -6.396531  103.603695  84.593893  8.087528  -21.354356  16.590514  -7.739462  19.343382  -10.700805  72.655484  -50.952684  -14.878142  -15.90785  -78.574175  59.868152  8.993169  11.531415  -11.077947  0.427151  6.195531  -8.313766  0.20814  4.656185  
0.0  101.685394  0.0  -4.638403  8.320169  -126.706021  9.527177  -18.79237  3.06427  -16.076703  20.662852  45.231503  0.017334  4.457398  -1.643225  5.468119  -2.858666  -77.531328  2.497022  15.437321  88.898812  -5.154346  -3.046611  12.27808  -1.60682  -0.210098  4.290721  -4.413428  -0.287563  11.736335  -4.413428  -0.287563  11.736336  8.685859  20.909719  25.210027  111.805093  43.108098  -179.533932  -34.155183  -6.798668  104.032892  84.550192  8.206337  -21.387182  15.503402  -7.842944  18.997495  -8.124291  72.3971  -48.423105  -14.548507  -15.589388  -79.200395  59.860262  8.861619  11.490409  -11.564387  0.047531  6.039743  -8.674767  -0.07871  4.532633  
0.0  101.685394  0.0  -3.860192  7.431891  -125.821612  10.280891  -18.44708  2.39944  -14.817392  20.058861  45.413882  -0.542077  4.496281  -1.693356  6.80981  -1.634447  -75.938336  1.560831  15.030315  91.814122  -4.983598  -1.67504  12.236464  -1.374969  -0.10943  4.26125  -3.764183  -0.056262  11.649596  -3.764183  -0.056262  11.649596  8.215281  20.455656  24.56273  112.879173  42.854554  -178.501737  -34.28513  -6.709907  104.632099  84.998246  8.17785  -21.192755  14.854607  -7.992872  18.375273  -5.424096  72.100559  -45.823698  -14.217006  -15.127334  -79.842295  59.894158  8.694685  11.452921  -11.77217  -0.396048  5.639836  -8.826334  -0.40592  4.224091  
0.0  101.685394  0.0  -3.025861  6.754671  -124.852244  10.718562  -17.819579  1.691673  -12.969948  18.977163  45.861409  -1.589251  4.528435  -1.818929  7.545911  -1.872879  -74.062883  2.396072  14.894981  94.496743  -4.260824  -0.463048  12.079761  -1.248576  0.039288  4.23481  -3.394001  0.325093  11.569931  -3.394001  0.325093  11.569931  8.191554  20.111604  23.856733  114.029576  42.784543  -177.581106  -34.401726  -6.656472  105.354263  85.546833  8.208881  -20.883103  14.765904  -8.149013  17.64734  -2.712195  71.75961  -43.139891  -13.890469  -14.526482  -80.510362  59.90258  8.532572  11.435957  -11.721377  -0.820927  5.073792  -8.784791  -0.713397  3.791187  
0.0  101.685394  0.0  -2.231591  6.274485  -123.850061  11.090019  -17.188797  0.993338  -10.964019  17.674451  46.41509  -2.759945  4.514066  -2.005014  8.066814  -2.847548  -71.778737  3.926139  15.281199  96.857155  -3.307574  0.763613  11.789131  -1.219823  0.201179  4.178072  -3.288282  0.758116  11.4073  -3.288282  0.758116  11.4073  8.456544  19.7914  23.246906  115.379623  42.738635  -176.425113  -34.513758  -6.953831  106.013122  86.16832  8.468017  -20.558513  15.040832  -8.257628  17.135912  -0.133161  71.454202  -40.570716  -13.587431  -13.882593  -81.190745  59.896939  8.424043  11.447424  -11.513806  -1.12302  4.493287  -8.627379  -0.927381  3.350106  
0.0  101.685394  0.0  -1.523823  5.779508  -122.737192  11.513929  -16.604042  0.122192  -9.360816  16.639843  46.744906  -3.836461  4.550938  -2.193131  8.182267  -4.096832  -69.276588  5.721465  15.538854  98.961862  -2.50897  1.964292  11.421285  -1.208796  0.333442  4.075979  -3.237532  1.111496  11.12236  -3.237532  1.111496  11.122359  8.764481  19.62825  22.821221  116.852354  42.820607  -175.154003  -34.516983  -7.538081  106.55969  86.961577  8.978871  -20.268671  15.250819  -8.23771  16.797115  2.713577  71.183507  -37.770567  -13.34928  -13.223609  -81.883708  59.86232  8.324868  11.498116  -11.290886  -1.32721  3.965894  -8.4596  -1.069173  2.950956  
0.0  101.685394  0.0  -1.009625  5.284531  -121.538548  12.18532  -16.3644  -0.837107  -8.475407  16.115362  46.681688  -4.606022  4.554681  -2.367352  7.904411  -5.31077  -66.486919  7.237232  15.465541  100.747276  -2.218716  3.249256  10.930287  -1.072184  0.374334  4.022827  -2.859529  1.197713  10.978002  -2.859529  1.197713  10.978002  8.021865  19.56708  22.020079  118.219359  42.983298  -173.719759  -34.445839  -8.503089  106.944992  87.799457  9.738886  -20.170853  14.570045  -7.990044  16.058952  5.758991  70.966355  -34.707108  -13.158758  -12.555896  -82.574073  59.744192  8.203824  11.618177  -11.685648  -1.514743  3.21058  -8.756059  -1.198012  2.379853  
